<svg width="94" height="94" viewBox="0 0 94 94" fill="none" xmlns="http://www.w3.org/2000/svg">
<rect x="46.7903" y="-1.29289" width="68" height="68" rx="4.5" transform="rotate(45 46.7903 -1.29289)" fill="url(#paint0_linear_0_1)"/>
<rect x="46.7903" y="-1.29289" width="68" height="68" rx="4.5" transform="rotate(45 46.7903 -1.29289)" fill="url(#paint1_linear_0_1)"/>
<rect x="46.7903" y="-1.29289" width="68" height="68" rx="4.5" transform="rotate(45 46.7903 -1.29289)" fill="url(#paint2_linear_0_1)"/>
<rect x="46.7903" y="-1.29289" width="68" height="68" rx="4.5" transform="rotate(45 46.7903 -1.29289)" stroke="url(#paint3_linear_0_1)"/>
<path d="M49.2383 32.4062V61H45.625V36.918L38.3398 39.5742V36.3125L48.6719 32.4062H49.2383Z" fill="#F5F5FF"/>
<defs>
<linearGradient id="paint0_linear_0_1" x1="107.043" y1="7.04414" x2="81.2903" y2="67" gradientUnits="userSpaceOnUse">
<stop stop-color="#66F6FF"/>
<stop offset="1" stop-color="#143DA9"/>
</linearGradient>
<linearGradient id="paint1_linear_0_1" x1="107.043" y1="7.04414" x2="81.2903" y2="67" gradientUnits="userSpaceOnUse">
<stop stop-color="#66F6FF"/>
<stop offset="1" stop-color="#143DA9"/>
</linearGradient>
<linearGradient id="paint2_linear_0_1" x1="107.043" y1="7.04414" x2="81.2903" y2="67" gradientUnits="userSpaceOnUse">
<stop stop-color="#19EFFD"/>
<stop offset="1" stop-color="#143DA9"/>
</linearGradient>
<linearGradient id="paint3_linear_0_1" x1="81.2903" y1="-2" x2="81.2903" y2="67" gradientUnits="userSpaceOnUse">
<stop stop-color="#F5F5FF"/>
<stop offset="1" stop-color="#D9D9FF" stop-opacity="0"/>
</linearGradient>
</defs>
</svg>
