<svg width="94" height="94" viewBox="0 0 94 94" fill="none" xmlns="http://www.w3.org/2000/svg">
<rect x="46.7903" y="-1.29289" width="68" height="68" rx="4.5" transform="rotate(45 46.7903 -1.29289)" fill="url(#paint0_linear_0_1)"/>
<rect x="46.7903" y="-1.29289" width="68" height="68" rx="4.5" transform="rotate(45 46.7903 -1.29289)" fill="url(#paint1_linear_0_1)"/>
<rect x="46.7903" y="-1.29289" width="68" height="68" rx="4.5" transform="rotate(45 46.7903 -1.29289)" fill="url(#paint2_linear_0_1)"/>
<rect x="46.7903" y="-1.29289" width="68" height="68" rx="4.5" transform="rotate(45 46.7903 -1.29289)" stroke="url(#paint3_linear_0_1)"/>
<path d="M55.9961 58.0312V61H37.3828V58.4023L46.6992 48.0312C47.8451 46.7552 48.7305 45.6745 49.3555 44.7891C49.9935 43.8906 50.4362 43.0898 50.6836 42.3867C50.944 41.6706 51.0742 40.9414 51.0742 40.1992C51.0742 39.2617 50.8789 38.4154 50.4883 37.6602C50.1107 36.8919 49.5508 36.2799 48.8086 35.8242C48.0664 35.3685 47.168 35.1406 46.1133 35.1406C44.8503 35.1406 43.7956 35.388 42.9492 35.8828C42.1159 36.3646 41.4909 37.0417 41.0742 37.9141C40.6576 38.7865 40.4492 39.7891 40.4492 40.9219H36.8359C36.8359 39.3203 37.1875 37.8555 37.8906 36.5273C38.5938 35.1992 39.6354 34.1445 41.0156 33.3633C42.3958 32.569 44.0951 32.1719 46.1133 32.1719C47.9102 32.1719 49.4466 32.4909 50.7227 33.1289C51.9987 33.7539 52.9753 34.6393 53.6523 35.7852C54.3424 36.918 54.6875 38.2461 54.6875 39.7695C54.6875 40.6029 54.5443 41.4492 54.2578 42.3086C53.9844 43.1549 53.6003 44.0013 53.1055 44.8477C52.6237 45.694 52.0573 46.5273 51.4062 47.3477C50.7682 48.168 50.0846 48.9753 49.3555 49.7695L41.7383 58.0312H55.9961Z" fill="#F5F5FF"/>
<defs>
<linearGradient id="paint0_linear_0_1" x1="107.043" y1="7.04414" x2="81.2903" y2="67" gradientUnits="userSpaceOnUse">
<stop stop-color="#66F6FF"/>
<stop offset="1" stop-color="#143DA9"/>
</linearGradient>
<linearGradient id="paint1_linear_0_1" x1="107.043" y1="7.04414" x2="81.2903" y2="67" gradientUnits="userSpaceOnUse">
<stop stop-color="#66F6FF"/>
<stop offset="1" stop-color="#143DA9"/>
</linearGradient>
<linearGradient id="paint2_linear_0_1" x1="107.043" y1="7.04414" x2="81.2903" y2="67" gradientUnits="userSpaceOnUse">
<stop stop-color="#66F6FF"/>
<stop offset="1" stop-color="#143DA9"/>
</linearGradient>
<linearGradient id="paint3_linear_0_1" x1="81.2903" y1="-2" x2="81.2903" y2="67" gradientUnits="userSpaceOnUse">
<stop stop-color="#F5F5FF"/>
<stop offset="1" stop-color="#D9D9FF" stop-opacity="0"/>
</linearGradient>
</defs>
</svg>
