<svg width="94" height="94" viewBox="0 0 94 94" fill="none" xmlns="http://www.w3.org/2000/svg">
<rect x="46.7904" y="-1.29289" width="68" height="68" rx="4.5" transform="rotate(45 46.7904 -1.29289)" fill="url(#paint0_linear_0_1)"/>
<rect x="46.7904" y="-1.29289" width="68" height="68" rx="4.5" transform="rotate(45 46.7904 -1.29289)" fill="url(#paint1_linear_0_1)"/>
<rect x="46.7904" y="-1.29289" width="68" height="68" rx="4.5" transform="rotate(45 46.7904 -1.29289)" fill="url(#paint2_linear_0_1)"/>
<rect x="46.7904" y="-1.29289" width="68" height="68" rx="4.5" transform="rotate(45 46.7904 -1.29289)" stroke="url(#paint3_linear_0_1)"/>
<path d="M42.6367 45.0039H45.2148C46.4779 45.0039 47.5195 44.7956 48.3398 44.3789C49.1732 43.9492 49.7917 43.3698 50.1953 42.6406C50.612 41.8984 50.8203 41.0651 50.8203 40.1406C50.8203 39.0469 50.638 38.1289 50.2734 37.3867C49.9089 36.6445 49.362 36.0846 48.6328 35.707C47.9036 35.3294 46.9792 35.1406 45.8594 35.1406C44.8438 35.1406 43.9453 35.3424 43.1641 35.7461C42.3958 36.1367 41.7904 36.6966 41.3477 37.4258C40.918 38.1549 40.7031 39.0143 40.7031 40.0039H37.0898C37.0898 38.5586 37.4544 37.2435 38.1836 36.0586C38.9128 34.8737 39.9349 33.9297 41.25 33.2266C42.5781 32.5234 44.1146 32.1719 45.8594 32.1719C47.5781 32.1719 49.082 32.4779 50.3711 33.0898C51.6602 33.6888 52.6628 34.5872 53.3789 35.7852C54.0951 36.9701 54.4531 38.4479 54.4531 40.2188C54.4531 40.9349 54.2839 41.7031 53.9453 42.5234C53.6198 43.3307 53.1055 44.0859 52.4023 44.7891C51.7122 45.4922 50.8138 46.0716 49.707 46.5273C48.6003 46.9701 47.2721 47.1914 45.7227 47.1914H42.6367V45.0039ZM42.6367 47.9727V45.8047H45.7227C47.5326 45.8047 49.0299 46.0195 50.2148 46.4492C51.3997 46.8789 52.3307 47.4518 53.0078 48.168C53.6979 48.8841 54.1797 49.6719 54.4531 50.5312C54.7396 51.3776 54.8828 52.224 54.8828 53.0703C54.8828 54.3984 54.6549 55.5768 54.1992 56.6055C53.7565 57.6341 53.125 58.5065 52.3047 59.2227C51.4974 59.9388 50.5469 60.4792 49.4531 60.8438C48.3594 61.2083 47.168 61.3906 45.8789 61.3906C44.6419 61.3906 43.4766 61.2148 42.3828 60.8633C41.3021 60.5117 40.3451 60.0039 39.5117 59.3398C38.6784 58.6628 38.0273 57.8359 37.5586 56.8594C37.0898 55.8698 36.8555 54.7435 36.8555 53.4805H40.4688C40.4688 54.4701 40.6836 55.3359 41.1133 56.0781C41.556 56.8203 42.181 57.3997 42.9883 57.8164C43.8086 58.2201 44.7721 58.4219 45.8789 58.4219C46.9857 58.4219 47.9362 58.2331 48.7305 57.8555C49.5378 57.4648 50.1562 56.8789 50.5859 56.0977C51.0286 55.3164 51.25 54.3333 51.25 53.1484C51.25 51.9635 51.0026 50.9935 50.5078 50.2383C50.013 49.4701 49.3099 48.9036 48.3984 48.5391C47.5 48.1615 46.4388 47.9727 45.2148 47.9727H42.6367Z" fill="#F5F5FF"/>
<defs>
<linearGradient id="paint0_linear_0_1" x1="107.043" y1="7.04414" x2="81.2904" y2="67" gradientUnits="userSpaceOnUse">
<stop stop-color="#66F6FF"/>
<stop offset="1" stop-color="#143DA9"/>
</linearGradient>
<linearGradient id="paint1_linear_0_1" x1="107.043" y1="7.04414" x2="81.2904" y2="67" gradientUnits="userSpaceOnUse">
<stop stop-color="#66F6FF"/>
<stop offset="1" stop-color="#143DA9"/>
</linearGradient>
<linearGradient id="paint2_linear_0_1" x1="107.043" y1="7.04414" x2="81.2904" y2="67" gradientUnits="userSpaceOnUse">
<stop stop-color="#66F6FF"/>
<stop offset="1" stop-color="#143DA9"/>
</linearGradient>
<linearGradient id="paint3_linear_0_1" x1="81.2904" y1="-2" x2="81.2904" y2="67" gradientUnits="userSpaceOnUse">
<stop stop-color="#F5F5FF"/>
<stop offset="1" stop-color="#D9D9FF" stop-opacity="0"/>
</linearGradient>
</defs>
</svg>
