<svg width="45" height="50" viewBox="0 0 45 50" fill="none" xmlns="http://www.w3.org/2000/svg">
<path fill-rule="evenodd" clip-rule="evenodd" d="M0.955004 3.91971H16.5382V1.52996C16.5382 0.688482 17.2255 0 18.0682 0H26.6718C27.5141 0 28.2017 0.688075 28.2017 1.52996V3.92012H43.5949C44.121 3.92012 44.5499 4.35021 44.5499 4.87593V9.56103H0V4.87553C0 4.34981 0.429284 3.91971 0.955004 3.91971ZM3.536 12.0464H41.346C42.1341 12.0464 42.8499 12.697 42.7787 13.4803L39.5788 48.5673C39.508 49.351 38.9318 50 38.1452 50H6.69154C5.90459 50 5.3276 49.3522 5.25761 48.5673L2.10207 13.4803C2.03208 12.6942 2.74701 12.0464 3.536 12.0464ZM28.1077 17.4961H32.1222V44.0726H28.1077V17.4961ZM12.2364 17.4961H16.2514V44.0726H12.2364V17.4961ZM20.1711 17.4961H24.1868V44.0726H20.1711V17.4961Z" fill="url(#paint0_linear_1016_3227)"/>
<defs>
<linearGradient id="paint0_linear_1016_3227" x1="22.275" y1="0" x2="22.275" y2="50" gradientUnits="userSpaceOnUse">
<stop stop-color="#B9CBFA"/>
<stop offset="1" stop-color="#F0F0F0"/>
</linearGradient>
</defs>
</svg>
