<svg width="38" height="38" viewBox="0 0 38 38" fill="none" xmlns="http://www.w3.org/2000/svg">
<path d="M0.999878 0C0.447593 0 -0.00012207 0.447715 -0.00012207 1C-0.00012207 1.55228 0.447593 2 0.999878 2L0.999878 0ZM5.99988 1L6.97002 0.757464C6.85873 0.312297 6.45874 0 5.99988 0L5.99988 1ZM32.9999 28C33.5522 28 33.9999 27.5523 33.9999 27C33.9999 26.4477 33.5522 26 32.9999 26V28ZM36.9999 5L37.97 5.24254C38.0447 4.94379 37.9776 4.6273 37.7881 4.38459C37.5986 4.14187 37.3078 4 36.9999 4V5ZM32.9999 21V22C33.4587 22 33.8587 21.6877 33.97 21.2425L32.9999 21ZM0.999878 2L5.99988 2L5.99988 0L0.999878 0L0.999878 2ZM5.02973 1.24254L6.02973 5.24254L7.97002 4.75746L6.97002 0.757464L5.02973 1.24254ZM6.02973 5.24254L10.0297 21.2425L11.97 20.7575L7.97002 4.75746L6.02973 5.24254ZM10.9999 20H9.99988V22H10.9999V20ZM9.99988 28H32.9999V26H9.99988V28ZM5.99988 24C5.99988 26.2091 7.79074 28 9.99988 28V26C8.89531 26 7.99988 25.1046 7.99988 24H5.99988ZM9.99988 20C7.79074 20 5.99988 21.7909 5.99988 24H7.99988C7.99988 22.8954 8.89531 22 9.99988 22V20ZM6.99988 6H36.9999V4H6.99988V6ZM36.0297 4.75746L32.0297 20.7575L33.97 21.2425L37.97 5.24254L36.0297 4.75746ZM32.9999 20H10.9999V22H32.9999V20ZM31.9999 35C31.9999 35.5523 31.5522 36 30.9999 36V38C32.6567 38 33.9999 36.6569 33.9999 35H31.9999ZM30.9999 36C30.4476 36 29.9999 35.5523 29.9999 35H27.9999C27.9999 36.6569 29.343 38 30.9999 38V36ZM29.9999 35C29.9999 34.4477 30.4476 34 30.9999 34V32C29.343 32 27.9999 33.3431 27.9999 35H29.9999ZM30.9999 34C31.5522 34 31.9999 34.4477 31.9999 35H33.9999C33.9999 33.3431 32.6567 32 30.9999 32V34ZM11.9999 35C11.9999 35.5523 11.5522 36 10.9999 36V38C12.6567 38 13.9999 36.6569 13.9999 35H11.9999ZM10.9999 36C10.4476 36 9.99988 35.5523 9.99988 35H7.99988C7.99988 36.6569 9.34302 38 10.9999 38V36ZM9.99988 35C9.99988 34.4477 10.4476 34 10.9999 34V32C9.34302 32 7.99988 33.3431 7.99988 35H9.99988ZM10.9999 34C11.5522 34 11.9999 34.4477 11.9999 35H13.9999C13.9999 33.3431 12.6567 32 10.9999 32V34Z" fill="white"/>
</svg>
