<svg width="60" height="60" viewBox="0 0 60 60" fill="none" xmlns="http://www.w3.org/2000/svg">
<circle cx="30" cy="30" r="29.5" fill="#F5F5FF" stroke="url(#paint0_linear_1002_3177)"/>
<path d="M48.8295 40.0006C48.4178 38.8351 47.3064 38 46 38C44.6936 38 43.5822 38.8351 43.1705 40.0006C43.0601 40.3132 43 40.6496 43 41C43 42.6569 44.3431 44 46 44C47.6569 44 49 42.6569 49 41C49 40.6496 48.9399 40.3132 48.8295 40.0006Z" fill="#000235"/>
<path d="M24.8295 40.0006C24.4178 38.8351 23.3064 38 22 38C20.6936 38 19.5822 38.8351 19.1705 40.0006C19.0601 40.3132 19 40.6496 19 41C19 42.6569 20.3431 44 22 44C23.6569 44 25 42.6569 25 41C25 40.6496 24.9399 40.3132 24.8295 40.0006Z" fill="#000235"/>
<path fill-rule="evenodd" clip-rule="evenodd" d="M35.1562 17H14.647L14.9019 17.0938H9.40625C8.6296 17.0938 8 17.7234 8 18.5C8 19.2767 8.6296 19.9063 9.40625 19.9063H15.9062C15.958 19.9063 16 19.9482 16 20V23C16 23.0518 15.958 23.0938 15.9062 23.0938H11.4063H11.1686C10.392 23.0938 9.76236 23.7234 9.76236 24.5C9.76236 25.2767 10.392 25.9063 11.1686 25.9063H11.4063H15.9062H17.2751C17.3268 25.9063 17.3688 25.9482 17.3688 26V29C17.3688 29.0518 17.3268 29.0938 17.2751 29.0938H16.4431H13.4882H13.4866H13.4062C12.6296 29.0938 12 29.7234 12 30.5C12 31.2767 12.6296 31.9063 13.4062 31.9063H13.4882H16.4431C16.9091 31.9063 17.2868 32.284 17.2868 32.75V34.25C17.2868 34.716 16.9091 35.0938 16.4431 35.0938H15.4882C14.7115 35.0938 14.0819 35.7234 14.0819 36.5C14.0819 37.2767 14.7115 37.9063 15.4882 37.9063H16.4431C16.5624 37.9063 16.6805 37.9005 16.7969 37.8894C17.2687 37.4177 17.8212 37.0268 18.4319 36.7391C19.1821 36.3855 20.0206 36.1876 20.9062 36.1876C21.7919 36.1876 22.6304 36.3855 23.3806 36.7391C25.1062 37.5521 26.367 39.189 26.6559 41.1426L35.9062 41V17.75C35.9062 17.3358 35.5705 17 35.1562 17ZM51.7117 32.4997C51.8369 32.6377 51.9062 32.8174 51.9062 33.0037V40.2499C51.9062 40.6641 51.5704 40.9999 51.1562 40.9999H50.633C50.3054 39.1109 49.0659 37.5347 47.3846 36.741C46.6334 36.3862 45.7934 36.1876 44.9062 36.1876C44.0206 36.1876 43.1821 36.3855 42.4319 36.7391C40.7485 37.5322 39.5074 39.1095 39.1795 40.9999H38.9062V24.9999H44.574C44.7856 24.9999 44.9873 25.0892 45.1295 25.2459L51.7117 32.4997Z" fill="#000235"/>
<defs>
<linearGradient id="paint0_linear_1002_3177" x1="30" y1="0" x2="30" y2="60" gradientUnits="userSpaceOnUse">
<stop stop-color="#3A6DF0"/>
<stop offset="1" stop-color="#143DA9" stop-opacity="0.25"/>
</linearGradient>
</defs>
</svg>
