<svg width="60" height="60" viewBox="0 0 60 60" fill="none" xmlns="http://www.w3.org/2000/svg">
<circle cx="30" cy="30" r="29.5" fill="#F5F5FF" stroke="url(#paint0_linear_1002_3179)"/>
<path fill-rule="evenodd" clip-rule="evenodd" d="M21.5612 15.2565L13.1526 19.4609L30.4332 28.8212L38.8419 24.6169L21.5612 15.2565ZM11 21.4935V39.4062C11 39.9389 11.3009 40.4258 11.7774 40.664L28.9998 49.2753V31.2434L11 21.4935ZM31.8123 49.2754L49.0351 40.664C49.5116 40.4258 49.8125 39.9389 49.8125 39.4062V22.2761L42.8123 25.7762V31.4065C42.8123 32.1831 42.1826 32.8127 41.406 32.8127C40.6293 32.8127 39.9998 32.1831 39.9998 31.4065V27.1825L31.8123 31.2762V49.2754ZM48.407 19.8344L31.0351 11.1485C30.6392 10.9505 30.1733 10.9505 29.7774 11.1485L24.6319 13.7212L41.9126 23.0816L48.407 19.8344Z" fill="#000235"/>
<defs>
<linearGradient id="paint0_linear_1002_3179" x1="30" y1="0" x2="30" y2="60" gradientUnits="userSpaceOnUse">
<stop stop-color="#3A6DF0"/>
<stop offset="1" stop-color="#143DA9" stop-opacity="0.25"/>
</linearGradient>
</defs>
</svg>
