<svg width="98" height="98" viewBox="0 0 98 98" fill="none" xmlns="http://www.w3.org/2000/svg">
<rect x="48.7903" y="0.707107" width="68" height="68" rx="4.5" transform="rotate(45 48.7903 0.707107)" fill="#F5F5FF" stroke="url(#paint0_linear_1003_3204)"/>
<path d="M44.6367 47.0039H47.2148C48.4779 47.0039 49.5195 46.7956 50.3398 46.3789C51.1732 45.9492 51.7917 45.3698 52.1953 44.6406C52.612 43.8984 52.8203 43.0651 52.8203 42.1406C52.8203 41.0469 52.638 40.1289 52.2734 39.3867C51.9089 38.6445 51.362 38.0846 50.6328 37.707C49.9036 37.3294 48.9792 37.1406 47.8594 37.1406C46.8438 37.1406 45.9453 37.3424 45.1641 37.7461C44.3958 38.1367 43.7904 38.6966 43.3477 39.4258C42.918 40.1549 42.7031 41.0143 42.7031 42.0039H39.0898C39.0898 40.5586 39.4544 39.2435 40.1836 38.0586C40.9128 36.8737 41.9349 35.9297 43.25 35.2266C44.5781 34.5234 46.1146 34.1719 47.8594 34.1719C49.5781 34.1719 51.082 34.4779 52.3711 35.0898C53.6602 35.6888 54.6628 36.5872 55.3789 37.7852C56.0951 38.9701 56.4531 40.4479 56.4531 42.2188C56.4531 42.9349 56.2839 43.7031 55.9453 44.5234C55.6198 45.3307 55.1055 46.0859 54.4023 46.7891C53.7122 47.4922 52.8138 48.0716 51.707 48.5273C50.6003 48.9701 49.2721 49.1914 47.7227 49.1914H44.6367V47.0039ZM44.6367 49.9727V47.8047H47.7227C49.5326 47.8047 51.0299 48.0195 52.2148 48.4492C53.3997 48.8789 54.3307 49.4518 55.0078 50.168C55.6979 50.8841 56.1797 51.6719 56.4531 52.5312C56.7396 53.3776 56.8828 54.224 56.8828 55.0703C56.8828 56.3984 56.6549 57.5768 56.1992 58.6055C55.7565 59.6341 55.125 60.5065 54.3047 61.2227C53.4974 61.9388 52.5469 62.4792 51.4531 62.8438C50.3594 63.2083 49.168 63.3906 47.8789 63.3906C46.6419 63.3906 45.4766 63.2148 44.3828 62.8633C43.3021 62.5117 42.3451 62.0039 41.5117 61.3398C40.6784 60.6628 40.0273 59.8359 39.5586 58.8594C39.0898 57.8698 38.8555 56.7435 38.8555 55.4805H42.4688C42.4688 56.4701 42.6836 57.3359 43.1133 58.0781C43.556 58.8203 44.181 59.3997 44.9883 59.8164C45.8086 60.2201 46.7721 60.4219 47.8789 60.4219C48.9857 60.4219 49.9362 60.2331 50.7305 59.8555C51.5378 59.4648 52.1562 58.8789 52.5859 58.0977C53.0286 57.3164 53.25 56.3333 53.25 55.1484C53.25 53.9635 53.0026 52.9935 52.5078 52.2383C52.013 51.4701 51.3099 50.9036 50.3984 50.5391C49.5 50.1615 48.4388 49.9727 47.2148 49.9727H44.6367Z" fill="#3A6DF0"/>
<defs>
<linearGradient id="paint0_linear_1003_3204" x1="83.2903" y1="0" x2="83.2903" y2="69" gradientUnits="userSpaceOnUse">
<stop stop-color="#3A6DF0"/>
<stop offset="1" stop-color="#143DA9" stop-opacity="0.25"/>
</linearGradient>
</defs>
</svg>
