<svg width="98" height="98" viewBox="0 0 98 98" fill="none" xmlns="http://www.w3.org/2000/svg">
<rect x="48.7903" y="0.707107" width="68" height="68" rx="4.5" transform="rotate(45 48.7903 0.707107)" fill="#F5F5FF" stroke="url(#paint0_linear_1003_3203)"/>
<path d="M57.9961 60.0312V63H39.3828V60.4023L48.6992 50.0312C49.8451 48.7552 50.7305 47.6745 51.3555 46.7891C51.9935 45.8906 52.4362 45.0898 52.6836 44.3867C52.944 43.6706 53.0742 42.9414 53.0742 42.1992C53.0742 41.2617 52.8789 40.4154 52.4883 39.6602C52.1107 38.8919 51.5508 38.2799 50.8086 37.8242C50.0664 37.3685 49.168 37.1406 48.1133 37.1406C46.8503 37.1406 45.7956 37.388 44.9492 37.8828C44.1159 38.3646 43.4909 39.0417 43.0742 39.9141C42.6576 40.7865 42.4492 41.7891 42.4492 42.9219H38.8359C38.8359 41.3203 39.1875 39.8555 39.8906 38.5273C40.5938 37.1992 41.6354 36.1445 43.0156 35.3633C44.3958 34.569 46.0951 34.1719 48.1133 34.1719C49.9102 34.1719 51.4466 34.4909 52.7227 35.1289C53.9987 35.7539 54.9753 36.6393 55.6523 37.7852C56.3424 38.918 56.6875 40.2461 56.6875 41.7695C56.6875 42.6029 56.5443 43.4492 56.2578 44.3086C55.9844 45.1549 55.6003 46.0013 55.1055 46.8477C54.6237 47.694 54.0573 48.5273 53.4062 49.3477C52.7682 50.168 52.0846 50.9753 51.3555 51.7695L43.7383 60.0312H57.9961Z" fill="#3A6DF0"/>
<defs>
<linearGradient id="paint0_linear_1003_3203" x1="83.2903" y1="0" x2="83.2903" y2="69" gradientUnits="userSpaceOnUse">
<stop stop-color="#3A6DF0"/>
<stop offset="1" stop-color="#143DA9" stop-opacity="0.25"/>
</linearGradient>
</defs>
</svg>
