<svg width="38" height="38" viewBox="0 0 38 38" fill="none" xmlns="http://www.w3.org/2000/svg">
<path d="M25.707 24.2929C25.3164 23.9024 24.6833 23.9024 24.2928 24.2929C23.9022 24.6834 23.9022 25.3166 24.2928 25.7071L25.707 24.2929ZM36.2928 37.7071C36.6833 38.0976 37.3164 38.0976 37.707 37.7071C38.0975 37.3166 38.0975 36.6834 37.707 36.2929L36.2928 37.7071ZM14.9999 28C7.82016 28 1.99986 22.1797 1.99986 15H-0.000137329C-0.000137329 23.2843 6.71559 30 14.9999 30V28ZM27.9999 15C27.9999 22.1797 22.1796 28 14.9999 28V30C23.2841 30 29.9999 23.2843 29.9999 15H27.9999ZM14.9999 2C22.1796 2 27.9999 7.8203 27.9999 15H29.9999C29.9999 6.71573 23.2841 0 14.9999 0V2ZM14.9999 0C6.71559 0 -0.000137329 6.71573 -0.000137329 15H1.99986C1.99986 7.8203 7.82016 2 14.9999 2V0ZM24.2928 25.7071L36.2928 37.7071L37.707 36.2929L25.707 24.2929L24.2928 25.7071Z" fill="#FBFBFB"/>
</svg>
