<svg width="226" height="34" viewBox="0 0 226 34" fill="none" xmlns="http://www.w3.org/2000/svg">
<path d="M0 8C0 3.58172 3.58172 0 8 0H17V34H8C3.58172 34 0 30.4183 0 26V8Z" fill="#CDCFCD"/>
<path d="M17 0H26C30.4183 0 34 3.58172 34 8V26C34 30.4183 30.4183 34 26 34H17V0Z" fill="#CDCFCD"/>
<path d="M0 8C0 3.58172 3.58172 0 8 0H17V34H8C3.58172 34 0 30.4183 0 26V8Z" fill="#F52020"/>
<path d="M17 0H26C30.4183 0 34 3.58172 34 8V26C34 30.4183 30.4183 34 26 34H17V0Z" fill="#F52020"/>
<path d="M17.2658 3L20.6336 13.3647H31.5317L22.7149 19.7705L26.0826 30.1353L17.2658 23.7295L8.44907 30.1353L11.8168 19.7705L3 13.3647H13.8981L17.2658 3Z" fill="white"/>
<path d="M48 8C48 3.58172 51.5817 0 56 0H65V34H56C51.5817 34 48 30.4183 48 26V8Z" fill="#CDCFCD"/>
<path d="M65 0H74C78.4183 0 82 3.58172 82 8V26C82 30.4183 78.4183 34 74 34H65V0Z" fill="#CDCFCD"/>
<path d="M48 8C48 3.58172 51.5817 0 56 0H65V34H56C51.5817 34 48 30.4183 48 26V8Z" fill="#F52020"/>
<path d="M65 0H74C78.4183 0 82 3.58172 82 8V26C82 30.4183 78.4183 34 74 34H65V0Z" fill="#CDCFCD"/>
<path d="M65.2658 3L68.6336 13.3647H79.5317L70.7149 19.7705L74.0826 30.1353L65.2658 23.7295L56.4491 30.1353L59.8168 19.7705L51 13.3647H61.8981L65.2658 3Z" fill="white"/>
<path d="M96 8C96 3.58172 99.5817 0 104 0H113V34H104C99.5817 34 96 30.4183 96 26V8Z" fill="#CDCFCD"/>
<path d="M113 0H122C126.418 0 130 3.58172 130 8V26C130 30.4183 126.418 34 122 34H113V0Z" fill="#CDCFCD"/>
<path d="M113.266 3L116.634 13.3647H127.532L118.715 19.7705L122.083 30.1353L113.266 23.7295L104.449 30.1353L107.817 19.7705L99 13.3647H109.898L113.266 3Z" fill="white"/>
<path d="M144 8C144 3.58172 147.582 0 152 0H161V34H152C147.582 34 144 30.4183 144 26V8Z" fill="#CDCFCD"/>
<path d="M161 0H170C174.418 0 178 3.58172 178 8V26C178 30.4183 174.418 34 170 34H161V0Z" fill="#CDCFCD"/>
<path d="M161.266 3L164.634 13.3647H175.532L166.715 19.7705L170.083 30.1353L161.266 23.7295L152.449 30.1353L155.817 19.7705L147 13.3647H157.898L161.266 3Z" fill="white"/>
<path d="M192 8C192 3.58172 195.582 0 200 0H209V34H200C195.582 34 192 30.4183 192 26V8Z" fill="#CDCFCD"/>
<path d="M209 0H218C222.418 0 226 3.58172 226 8V26C226 30.4183 222.418 34 218 34H209V0Z" fill="#CDCFCD"/>
<path d="M209.266 3L212.634 13.3647H223.532L214.715 19.7705L218.083 30.1353L209.266 23.7295L200.449 30.1353L203.817 19.7705L195 13.3647H205.898L209.266 3Z" fill="white"/>
<path d="M0 8C0 3.58172 3.58172 0 8 0H17V34H8C3.58172 34 0 30.4183 0 26V8Z" fill="#CDCFCD"/>
<path d="M17 0H26C30.4183 0 34 3.58172 34 8V26C34 30.4183 30.4183 34 26 34H17V0Z" fill="#CDCFCD"/>
<path d="M0 8C0 3.58172 3.58172 0 8 0H17V34H8C3.58172 34 0 30.4183 0 26V8Z" fill="#007F4E"/>
<path d="M17 0H26C30.4183 0 34 3.58172 34 8V26C34 30.4183 30.4183 34 26 34H17V0Z" fill="#007F4E"/>
<path d="M17.2658 3L20.6336 13.3647H31.5317L22.7149 19.7705L26.0826 30.1353L17.2658 23.7295L8.44907 30.1353L11.8168 19.7705L3 13.3647H13.8981L17.2658 3Z" fill="white"/>
<path d="M48 8C48 3.58172 51.5817 0 56 0H65V34H56C51.5817 34 48 30.4183 48 26V8Z" fill="#CDCFCD"/>
<path d="M65 0H74C78.4183 0 82 3.58172 82 8V26C82 30.4183 78.4183 34 74 34H65V0Z" fill="#CDCFCD"/>
<path d="M48 8C48 3.58172 51.5817 0 56 0H65V34H56C51.5817 34 48 30.4183 48 26V8Z" fill="#007F4E"/>
<path d="M65 0H74C78.4183 0 82 3.58172 82 8V26C82 30.4183 78.4183 34 74 34H65V0Z" fill="#007F4E"/>
<path d="M65.2658 3L68.6336 13.3647H79.5317L70.7149 19.7705L74.0826 30.1353L65.2658 23.7295L56.4491 30.1353L59.8168 19.7705L51 13.3647H61.8981L65.2658 3Z" fill="white"/>
<path d="M96 8C96 3.58172 99.5817 0 104 0H113V34H104C99.5817 34 96 30.4183 96 26V8Z" fill="#007F4E"/>
<path d="M113 0H122C126.418 0 130 3.58172 130 8V26C130 30.4183 126.418 34 122 34H113V0Z" fill="#007F4E"/>
<path d="M113.266 3L116.634 13.3647H127.532L118.715 19.7705L122.083 30.1353L113.266 23.7295L104.449 30.1353L107.817 19.7705L99 13.3647H109.898L113.266 3Z" fill="white"/>
<path d="M144 8C144 3.58172 147.582 0 152 0H161V34H152C147.582 34 144 30.4183 144 26V8Z" fill="#007F4E"/>
<path d="M161 0H170C174.418 0 178 3.58172 178 8V26C178 30.4183 174.418 34 170 34H161V0Z" fill="#007F4E"/>
<path d="M161.266 3L164.634 13.3647H175.532L166.715 19.7705L170.083 30.1353L161.266 23.7295L152.449 30.1353L155.817 19.7705L147 13.3647H157.898L161.266 3Z" fill="white"/>
<path d="M192 8C192 3.58172 195.582 0 200 0H209V34H200C195.582 34 192 30.4183 192 26V8Z" fill="#007F4E"/>
<path d="M209 0H218C222.418 0 226 3.58172 226 8V26C226 30.4183 222.418 34 218 34H209V0Z" fill="#007F4E"/>
<path d="M209.266 3L212.634 13.3647H223.532L214.715 19.7705L218.083 30.1353L209.266 23.7295L200.449 30.1353L203.817 19.7705L195 13.3647H205.898L209.266 3Z" fill="white"/>
</svg>
