<svg width="512" height="512" viewBox="0 0 512 512" fill="none" xmlns="http://www.w3.org/2000/svg">
<g clip-path="url(#clip0_50_4)">
<path fill-rule="evenodd" clip-rule="evenodd" d="M449.446 0C483.971 0 512 28.03 512 62.554V449.446C512 483.97 483.97 512 449.446 512H62.554C28.03 512 0 483.97 0 449.446V62.554C0 28.03 28.029 0 62.554 0L449.446 0ZM195.519 424.544C331.458 424.544 405.787 311.901 405.787 214.276C405.787 211.058 405.787 207.839 405.634 204.774C420.04 194.353 432.607 181.326 442.569 166.46C429.389 172.284 415.136 176.269 400.117 178.108C415.443 168.912 427.09 154.506 432.607 137.188C418.355 145.617 402.569 151.748 385.711 155.119C372.224 140.713 353.067 131.824 331.765 131.824C290.998 131.824 257.895 164.928 257.895 205.694C257.895 211.518 258.508 217.188 259.887 222.552C198.431 219.487 144.025 190.062 107.55 145.311C101.266 156.192 97.588 168.912 97.588 182.399C97.588 207.993 110.615 230.675 130.538 243.855C118.431 243.548 107.09 240.177 97.128 234.659V235.579C97.128 271.441 122.569 301.173 156.439 308.069C150.309 309.755 143.719 310.675 136.975 310.675C132.224 310.675 127.627 310.215 123.029 309.295C132.378 338.721 159.657 360.023 191.994 360.636C166.707 380.407 134.83 392.207 100.194 392.207C94.217 392.207 88.393 391.901 82.569 391.134C114.906 412.284 153.833 424.544 195.519 424.544Z" fill="white"/>
</g>
<defs>
<clipPath id="clip0_50_4">
<rect width="512" height="512" fill="white"/>
</clipPath>
</defs>
</svg>
