<svg width="30" height="36" viewBox="0 0 30 36" fill="none" xmlns="http://www.w3.org/2000/svg">
<g clip-path="url(#clip0_929_3170)">
<path fill-rule="evenodd" clip-rule="evenodd" d="M7.99991 9C7.99991 5.13401 11.1339 2 14.9999 2C18.8659 2 21.9999 5.13401 21.9999 9C21.9999 12.866 18.8659 16 14.9999 16C11.1339 16 7.99991 12.866 7.99991 9ZM14.9999 0C10.0293 0 5.99991 4.02944 5.99991 9C5.99991 13.9706 10.0293 18 14.9999 18C19.9704 18 23.9999 13.9706 23.9999 9C23.9999 4.02944 19.9704 0 14.9999 0ZM2 31.6667C2 28.513 4.48615 26 7.5 26H22.5C25.5138 26 28 28.513 28 31.6667V34H2V31.6667ZM7.5 24C3.33415 24 0 27.4565 0 31.6667V35C0 35.5523 0.447715 36 0.999999 36H29C29.5522 36 30 35.5523 30 35V31.6667C30 27.4565 26.6658 24 22.5 24H7.5Z" fill="#BEBDBD"/>
</g>
<defs>
<clipPath id="clip0_929_3170">
<rect width="30" height="36" fill="white"/>
</clipPath>
</defs>
</svg>
