<svg width="30" height="36" viewBox="0 0 30 36" fill="none" xmlns="http://www.w3.org/2000/svg">
<path fill-rule="evenodd" clip-rule="evenodd" d="M7.99997 9C7.99997 5.13401 11.134 2 15 2C18.866 2 22 5.13401 22 9C22 12.866 18.866 16 15 16C11.134 16 7.99997 12.866 7.99997 9ZM15 0C10.0294 0 5.99997 4.02944 5.99997 9C5.99997 13.9706 10.0294 18 15 18C19.9705 18 24 13.9706 24 9C24 4.02944 19.9705 0 15 0ZM2.00006 31.6667C2.00006 28.513 4.48621 26 7.50006 26H22.5001C25.5139 26 28.0001 28.513 28.0001 31.6667V34H2.00006V31.6667ZM7.50006 24C3.33421 24 6.10352e-05 27.4565 6.10352e-05 31.6667V35C6.10352e-05 35.5523 0.447776 36 1.00006 36H29.0001C29.5523 36 30.0001 35.5523 30.0001 35V31.6667C30.0001 27.4565 26.6659 24 22.5001 24H7.50006Z" fill="white"/>
</svg>
