<svg width="44" height="28" viewBox="0 0 44 28" fill="none" xmlns="http://www.w3.org/2000/svg">
<path fill-rule="evenodd" clip-rule="evenodd" d="M6.74071 -0.000244141H26.125C27.1605 -0.000244141 28 0.839222 28 1.87476V23.9998L18.7497 24.1424C18.4608 22.1888 17.1999 20.5518 15.4743 19.7388C14.7241 19.3853 13.8856 19.1874 13 19.1874C12.1144 19.1874 11.2758 19.3853 10.5256 19.7388C9.99117 19.9906 9.50129 20.3215 9.07107 20.7163C8.66475 20.8399 8.23356 20.9064 7.78684 20.9064H7.58195C6.8053 20.9064 6.1757 20.2768 6.1757 19.5001C6.1757 18.7235 6.8053 18.0939 7.58195 18.0939H7.78684C8.66704 18.0939 9.38058 17.3803 9.38058 16.5001C9.38058 15.6199 8.66704 14.9064 7.78684 14.9064H5.5C4.72335 14.9064 4.09375 14.2768 4.09375 13.5001C4.09375 12.7235 4.72335 12.0939 5.5 12.0939H5.54954C5.56031 12.0936 5.57112 12.0935 5.58195 12.0935H7.86879C8.74899 12.0935 9.46254 11.38 9.46254 10.4998C9.46254 9.61955 8.74899 8.90601 7.86879 8.90601H6.52856L6.5 8.9061H3.26236C2.48571 8.9061 1.85611 8.2765 1.85611 7.49985C1.85611 6.7232 2.48571 6.0936 3.26236 6.0936H3.48378L3.5 6.09351H6.51726C7.38951 6.08425 8.09375 5.37429 8.09375 4.49985C8.09375 3.61964 7.3802 2.9061 6.5 2.9061H1.5C0.72335 2.9061 0.09375 2.2765 0.09375 1.49985C0.09375 0.723198 0.72335 0.0935981 1.5 0.0935981H6.5C6.70685 0.0935981 6.91038 0.107852 7.10965 0.135431L6.74071 -0.000244141ZM8.86327 0.780316C9.07527 0.915296 9.27495 1.0679 9.46025 1.23607L9.45998 0.999756L8.86327 0.780316ZM44 16.4383C44 15.9724 43.8266 15.5233 43.5135 15.1783L37.5581 8.61511C37.2027 8.22345 36.6984 8.00009 36.1695 8.00009H31V24.0001H31.2731C31.6009 22.1095 32.8421 20.532 34.5256 19.7388C35.2758 19.3853 36.1144 19.1874 37 19.1874C37.8872 19.1874 38.7271 19.386 39.4783 19.7407C41.1321 20.5214 42.3584 22.0593 42.7099 23.9071C43.459 23.6613 44 22.9564 44 22.1251V16.4383ZM13 21.9999C14.3064 21.9999 15.4178 22.835 15.8295 24.0005C15.9399 24.3131 16 24.6495 16 24.9999C16 26.6567 14.6568 27.9999 13 27.9999C11.3431 27.9999 9.99998 26.6567 9.99998 24.9999C9.99998 24.6495 10.0601 24.3131 10.1705 24.0005C10.5822 22.835 11.6935 21.9999 13 21.9999ZM37 21.9999C38.3064 21.9999 39.4178 22.835 39.8295 24.0005C39.9399 24.3131 40 24.6495 40 24.9999C40 26.6567 38.6568 27.9999 37 27.9999C35.3431 27.9999 34 26.6567 34 24.9999C34 24.6495 34.0601 24.3131 34.1705 24.0005C34.5822 22.835 35.6935 21.9999 37 21.9999Z" fill="#F5F5FF"/>
</svg>
